# xmcd
#
# Track frame offsets:
#	150
#	15542
#	27310
#	40407
#	52095
#	71220
#	81320
#	98445
#	113960
#	128145
#	148575
#
# Disc length: 2206 seconds
#
# Revision: 0
# Processed by: cddbd v1.4PL0 Copyright (c) Steve Scherf et al.
# Submitted via: EasyCDDAExtractor 4.5.2.1
#
DISCID=98089c0b
DTITLE=Spanic boys - The spanic family album
DYEAR=1994
DGENRE=Country
TTITLE0=what´s in those eyes
TTITLE1=Billy
TTITLE2=the harder i look
TTITLE3=i can´t find a way
TTITLE4=won´t you help me
TTITLE5=look up
TTITLE6=a million miles
TTITLE7=she waits
TTITLE8=i saw you today
TTITLE9=deep water
TTITLE10=nighttime
EXTD=
EXTT0=
EXTT1=
EXTT2=
EXTT3=
EXTT4=
EXTT5=
EXTT6=
EXTT7=
EXTT8=
EXTT9=
EXTT10=
PLAYORDER=
